<?xml version="1.0" encoding="UTF-8" standalone="no"?>
<!-- Created with Inkscape (http://www.inkscape.org/) -->

<svg
   xmlns:dc="http://purl.org/dc/elements/1.1/"
   xmlns:cc="http://creativecommons.org/ns#"
   xmlns:rdf="http://www.w3.org/1999/02/22-rdf-syntax-ns#"
   xmlns:svg="http://www.w3.org/2000/svg"
   xmlns="http://www.w3.org/2000/svg"
   xmlns:sodipodi="http://sodipodi.sourceforge.net/DTD/sodipodi-0.dtd"
   xmlns:inkscape="http://www.inkscape.org/namespaces/inkscape"
   width="1052.3622"
   height="744.09448"
   id="svg2"
   version="1.1"
   inkscape:version="0.48.4 r9939"
   sodipodi:docname="1_title_landscape.svg">
  <defs
     id="defs4" />
  <sodipodi:namedview
     id="base"
     pagecolor="#ffffff"
     bordercolor="#666666"
     borderopacity="1.0"
     inkscape:pageopacity="0.0"
     inkscape:pageshadow="2"
     inkscape:zoom="1.5225784"
     inkscape:cx="451.14871"
     inkscape:cy="201.01831"
     inkscape:document-units="mm"
     inkscape:current-layer="layer3"
     showgrid="false"
     inkscape:window-width="1680"
     inkscape:window-height="1000"
     inkscape:window-x="0"
     inkscape:window-y="0"
     inkscape:window-maximized="1"
     showguides="false"
     inkscape:guide-bbox="true"
     units="mm"
     inkscape:snap-grids="false"
     inkscape:snap-bbox="true"
     inkscape:snap-bbox-midpoints="true"
     inkscape:snap-global="true"
     inkscape:snap-to-guides="true">
    <inkscape:grid
       units="mm"
       empspacing="10"
       visible="true"
       enabled="true"
       snapvisiblegridlinesonly="true"
       type="xygrid"
       id="grid3073" />
    <sodipodi:guide
       orientation="0,1"
       position="432.5074,577.57161"
       id="guide3079" />
    <sodipodi:guide
       orientation="0,1"
       position="-35.433071,175.3937"
       id="guide3081" />
    <sodipodi:guide
       orientation="0,1"
       position="-35.433071,87.69685"
       id="guide3089" />
  </sodipodi:namedview>
  <metadata
     id="metadata7">
    <rdf:RDF>
      <cc:Work
         rdf:about="">
        <dc:format>image/svg+xml</dc:format>
        <dc:type
           rdf:resource="http://purl.org/dc/dcmitype/StillImage" />
        <dc:title />
      </cc:Work>
    </rdf:RDF>
  </metadata>
  <g
     inkscape:groupmode="layer"
     id="layer3"
     inkscape:label="Deckblatt"
     transform="translate(0,-308.2677)"
     style="display:inline">
    <g
       id="g3055"
       transform="translate(247.91528,309.51804)">
      <text
         sodipodi:linespacing="125%"
         id="text3047"
         y="434.14883"
         x="279.31418"
         style="font-size:16px;font-style:normal;font-variant:normal;font-weight:normal;font-stretch:normal;text-align:center;line-height:125%;letter-spacing:2.13999987px;word-spacing:0px;text-anchor:middle;fill:#000000;fill-opacity:1;stroke:none;font-family:EB Garamond 12 All SC;-inkscape-font-specification:EB Garamond 12 All SC"
         xml:space="preserve"><tspan
           y="434.14883"
           x="280.38419"
           id="tspan3049"
           sodipodi:role="line">baldassare</tspan></text>
      <text
         sodipodi:linespacing="125%"
         id="text3051"
         y="452.66589"
         x="277.94019"
         style="font-size:12px;font-style:normal;font-variant:normal;font-weight:normal;font-stretch:normal;text-align:center;line-height:125%;letter-spacing:5.19000053px;word-spacing:0px;text-anchor:middle;fill:#d40000;fill-opacity:1;stroke:none;font-family:EB Garamond;-inkscape-font-specification:EB Garamond"
         xml:space="preserve"><tspan
           style="font-size:20px;letter-spacing:5.19000053px;fill:#d40000"
           y="452.66589"
           x="280.53519"
           id="tspan3053"
           sodipodi:role="line">GALUPPI</tspan></text>
    </g>
    <text
       xml:space="preserve"
       style="font-size:12px;font-style:normal;font-variant:normal;font-weight:normal;font-stretch:normal;text-align:center;line-height:110.00000238%;letter-spacing:0px;word-spacing:0px;text-anchor:middle;fill:#000000;fill-opacity:1;stroke:none;font-family:EB Garamond;-inkscape-font-specification:EB Garamond"
       x="526.22748"
       y="559.57654"
       id="text3061"
       sodipodi:linespacing="110%"><tspan
         sodipodi:role="line"
         x="526.22748"
         y="559.57654"
         style="font-size:14px;font-style:normal;line-height:110.00000238%;-inkscape-font-specification:EB Garamond"
         id="tspan3040">Missa in e</tspan><tspan
         sodipodi:role="line"
         x="526.22748"
         y="574.97656"
         style="font-size:14px;font-style:normal;line-height:110.00000238%;-inkscape-font-specification:EB Garamond"
         id="tspan3797" /><tspan
         sodipodi:role="line"
         x="526.22748"
         y="590.37653"
         style="font-size:14px;font-style:normal;line-height:110.00000238%;-inkscape-font-specification:EB Garamond"
         id="tspan3799">BurG I/7</tspan></text>
    <text
       xml:space="preserve"
       style="font-size:14px;font-style:normal;font-variant:normal;font-weight:normal;font-stretch:normal;text-align:center;line-height:125%;letter-spacing:1.84000015px;word-spacing:0px;text-anchor:middle;fill:#000000;fill-opacity:1;stroke:none;font-family:EB Garamond 12 All SC;-inkscape-font-specification:EB Garamond 12 All SC"
       x="526.20123"
       y="967.76636"
       id="text3099"
       sodipodi:linespacing="125%"><tspan
         sodipodi:role="line"
         x="527.12122"
         y="967.76636"
         id="tspan3023">full score</tspan></text>
    <text
       sodipodi:linespacing="110%"
       id="text3021"
       y="876.96851"
       x="526.0517"
       style="font-size:12px;font-style:normal;font-variant:normal;font-weight:normal;font-stretch:normal;text-align:center;line-height:110.00000238%;letter-spacing:0px;word-spacing:0px;text-anchor:middle;fill:#000000;fill-opacity:1;stroke:none;font-family:EB Garamond;-inkscape-font-specification:EB Garamond"
       xml:space="preserve"><tspan
         style="font-size:14px;font-style:normal;line-height:110.00000238%;-inkscape-font-specification:EB Garamond"
         y="876.96851"
         x="526.0517"
         sodipodi:role="line"
         id="tspan3845">2 S, A, T, B (Solo), S, A, T, B (coro), tr, 2 ob, vl (Solo), 2 vl, vla, b, org</tspan></text>
    <text
       xml:space="preserve"
       style="font-size:72px;font-style:normal;font-variant:normal;font-weight:normal;font-stretch:normal;text-align:center;line-height:125%;letter-spacing:0px;word-spacing:0px;text-anchor:middle;fill:#000000;fill-opacity:1;stroke:none;font-family:EB Garamond;-inkscape-font-specification:EB Garamond"
       x="331.59164"
       y="265.2836"
       id="text3823"
       sodipodi:linespacing="125%"
       transform="translate(0,308.2677)"><tspan
         sodipodi:role="line"
         id="tspan3825"
         x="331.59164"
         y="265.2836" /></text>
    <g
       transform="translate(377.98717,227.98527)"
       style="font-size:72px;font-style:normal;font-variant:normal;font-weight:normal;font-stretch:normal;text-align:center;line-height:125%;letter-spacing:0px;word-spacing:0px;text-anchor:middle;fill:none;stroke:#808080;stroke-width:0.62362206;stroke-miterlimit:4;stroke-dasharray:none;font-family:EB Garamond;-inkscape-font-specification:EB Garamond"
       id="text3008">
      <path
         d="m 39.522856,259.2973 -1.224,-23.76 c -0.215999,-4.104 0.576003,-5.544 2.808,-6.48 2.879997,-1.224 3.456,-1.44 3.456,-2.16 0,-0.72 -0.288001,-1.224 -1.152,-1.224 -2.303997,0 -7.272002,0.72 -9.144,0.72 -1.871998,0 -2.88,0 -3.672,1.656 l -11.304,23.472 c -1.367998,2.73599 -1.656,1.584 -2.232,0.072 l -8.4239997,-20.664 c -1.3679986,-3.24 -2.5920019,-4.536 -4.536,-4.536 -3.31199666,0 -5.4000026,-0.36 -7.992,-0.36 -0.8639991,0 -2.448,-0.072 -2.448,1.008 0,1.152 2.5920013,2.232 3.888,3.456 1.79999822,1.65599 2.95199938,3.024 2.30400002,8.136 l -2.44800002,19.152 c -0.5039995,3.59999 -1.7280024,6.48 -4.176,7.56 -1.6559983,0.72 -3.9600003,1.08 -3.9600003,2.16 0,0.72 1.5840011,1.152 2.3760003,1.224 0.5039995,0 3.2400034,-0.432 6.624,-0.432 3.4559966,0 6.6240005,0.432 7.128,0.432 0.7919992,-0.072 2.304,-0.504 2.304,-1.224 0,-1.08 -2.3760016,-1.44 -3.96,-2.16 -1.8719981,-0.864 -2.3759998,-4.39201 -2.232,-6.336 l 1.224,-20.088 c 0.072,-1.8 0.7200011,-2.808 1.8,-0.072 l 8.8559997,22.68 c 1.511999,3.88799 2.088001,4.464 2.808,4.464 0.648,0 3.672001,-6.192 3.96,-6.84 l 9.72,-22.32 c 0.504,-1.296 1.8,-1.584 1.872,-0.216 l 0.936,22.68 c 0.144,2.66399 -0.936002,4.968 -3.384,6.048 -1.583998,0.72 -3.96,1.08 -3.96,2.16 0,0.72 1.584001,1.152 2.376,1.224 0.504,0 4.752004,-0.432 8.136,-0.432 3.455997,0 8.208001,0.432 8.712,0.432 0.792,-0.072 2.304,-0.504 2.304,-1.224 0,-1.08 -2.376001,-1.44 -3.96,-2.16 -2.447997,-1.08 -3.24,-3.38401 -3.384,-6.048"
         style="fill:none;stroke:#808080;stroke-width:0.62362206;stroke-miterlimit:4;stroke-dasharray:none"
         id="path3013"
         inkscape:connector-curvature="0" />
      <path
         d="m 66.990856,226.0333 c -2.447997,0 -5.400002,0.36 -7.92,0.36 -2.591997,0 -5.184002,-0.36 -7.992,-0.36 -1.079999,0 -2.52,0.432 -2.52,1.296 0,0.648 0.504001,1.008 1.152,1.224 4.103996,1.152 5.904,1.224 5.904,5.328 l 0,26.28 c 0,2.66399 -0.936002,4.104 -3.384,5.184 -1.583998,0.72 -3.96,1.08 -3.96,2.16 0,0.72 1.584001,1.152 2.376,1.224 0.504,0 4.752004,-0.432 8.136,-0.432 3.455997,0 8.208001,0.432 8.712,0.432 0.792,-0.072 2.304,-0.504 2.304,-1.224 0,-1.08 -2.376001,-1.44 -3.96,-2.16 -2.447997,-1.08 -3.384,-2.52001 -3.384,-5.184 l 0,-26.28 c 0,-4.104 1.872004,-4.176 5.976,-5.328 0.648,-0.216 1.08,-0.576 1.08,-1.224 0,-0.864 -1.440001,-1.296 -2.52,-1.296"
         style="fill:none;stroke:#808080;stroke-width:0.62362206;stroke-miterlimit:4;stroke-dasharray:none"
         id="path3015"
         inkscape:connector-curvature="0" />
      <path
         d="m 88.003606,225.3133 c -7.055993,0 -12.816,5.328 -12.816,12.096 0,3.52799 1.656003,6.12 4.248,8.28 l 9.72,8.208 c 1.799999,1.512 2.88,3.312 2.88,5.76 0,3.59999 -2.664003,6.912 -6.264,6.912 -4.175996,0 -6.984,-2.08801 -7.776,-4.68 -0.647999,-2.16 -1.296001,-3.384 -2.448,-3.384 -0.719999,0 -1.224,0.864 -1.368,1.728 -0.215999,0.936 -0.504,3.96 -0.504,4.968 0,1.008 0.648003,1.368 3.312,2.592 1.727999,0.792 5.040003,1.584 7.56,1.584 7.199993,0 14.472,-5.25601 14.472,-12.312 0,-3.024 -1.224002,-5.47201 -3.456,-7.344 l -10.152,-8.568 c -2.159998,-1.8 -3.672,-3.67201 -3.672,-6.048 0,-3.168 2.808003,-5.688 5.904,-5.688 2.087998,0 4.968001,0.864 5.688,2.592 1.079999,2.59199 2.016001,3.312 2.88,3.312 1.079999,0 1.44,-1.008 1.44,-1.944 0,-1.368 -0.072,-2.952 -0.288,-4.104 -0.144,-0.792 -0.792001,-1.368 -2.16,-2.088 -1.583998,-0.792 -4.896002,-1.872 -7.2,-1.872"
         style="fill:none;stroke:#808080;stroke-width:0.62362206;stroke-miterlimit:4;stroke-dasharray:none"
         id="path3017"
         inkscape:connector-curvature="0" />
      <path
         d="m 117.39423,225.3133 c -7.05599,0 -12.816,5.328 -12.816,12.096 0,3.52799 1.656,6.12 4.248,8.28 l 9.72,8.208 c 1.8,1.512 2.88,3.312 2.88,5.76 0,3.59999 -2.664,6.912 -6.264,6.912 -4.17599,0 -6.984,-2.08801 -7.776,-4.68 -0.648,-2.16 -1.296,-3.384 -2.448,-3.384 -0.72,0 -1.224,0.864 -1.368,1.728 -0.216,0.936 -0.504,3.96 -0.504,4.968 0,1.008 0.648,1.368 3.312,2.592 1.728,0.792 5.04,1.584 7.56,1.584 7.19999,0 14.472,-5.25601 14.472,-12.312 0,-3.024 -1.224,-5.47201 -3.456,-7.344 l -10.152,-8.568 c -2.16,-1.8 -3.672,-3.67201 -3.672,-6.048 0,-3.168 2.808,-5.688 5.904,-5.688 2.088,0 4.968,0.864 5.688,2.592 1.08,2.59199 2.016,3.312 2.88,3.312 1.08,0 1.44,-1.008 1.44,-1.944 0,-1.368 -0.072,-2.952 -0.288,-4.104 -0.144,-0.792 -0.792,-1.368 -2.16,-2.088 -1.584,-0.792 -4.896,-1.872 -7.2,-1.872"
         style="fill:none;stroke:#808080;stroke-width:0.62362206;stroke-miterlimit:4;stroke-dasharray:none"
         id="path3019"
         inkscape:connector-curvature="0" />
      <path
         d="m 147.21686,249.0013 5.04,-14.328 c 0.288,-0.72 0.576,-0.936 0.792,-0.216 l 4.392,13.464 c 0.72,2.30399 0.64799,2.592 -0.792,2.592 l -8.784,0 c -1.296,0 -1.08,-0.36 -0.648,-1.512 m 20.52,19.296 c 2.37599,0 4.968,0.432 6.624,0.432 1.36799,0 2.088,-0.36 2.088,-1.152 0,-0.72 -0.64801,-1.44 -2.88,-2.232 -3.528,-1.296 -4.32001,-3.24001 -6.408,-9.072 l -9.504,-26.856 c -1.008,-2.808 -1.44,-5.184 -2.664,-5.184 -0.432,0 -1.72801,2.016 -3.096,2.16 -0.792,0.072 -0.792,1.008 -2.016,4.104 l -11.016,30.456 c -1.08,2.95199 -1.00801,3.312 -3.384,4.392 -1.584,0.72 -3.96,1.08 -3.96,2.16 0,0.792 1.008,1.224 2.376,1.224 1.08,0 2.736,-0.432 4.536,-0.432 1.36799,0 4.536,0.432 5.904,0.432 1.79999,0 2.52,-0.432 2.52,-1.224 0,-0.72 -0.79201,-1.512 -2.664,-2.016 -2.088,-0.576 -2.016,-1.728 -1.584,-3.024 l 2.736,-7.848 c 0.288,-0.72 0.792,-0.792 1.152,-0.792 l 12.024,0 c 0.576,0 0.936,0.216 1.152,0.864 l 2.088,6.84 c 0.36,1.224 0.50399,2.592 -2.088,3.816 -1.584,0.72 -3.888,1.08 -3.888,2.16 0,0.792 1.368,1.224 2.304,1.224 2.15999,0 4.896,-0.432 9.648,-0.432"
         style="fill:none;stroke:#808080;stroke-width:0.62362206;stroke-miterlimit:4;stroke-dasharray:none"
         id="path3021"
         inkscape:connector-curvature="0" />
      <path
         d="m 211.83461,226.0333 c -2.448,0 -5.40001,0.36 -7.92,0.36 -2.592,0 -5.18401,-0.36 -7.992,-0.36 -1.08,0 -2.52,0.432 -2.52,1.296 0,0.648 0.504,1.008 1.152,1.224 4.10399,1.152 5.904,1.224 5.904,5.328 l 0,26.28 c 0,2.66399 -0.93601,4.104 -3.384,5.184 -1.584,0.72 -3.96,1.08 -3.96,2.16 0,0.72 1.584,1.152 2.376,1.224 0.504,0 4.752,-0.432 8.136,-0.432 3.45599,0 8.208,0.432 8.712,0.432 0.792,-0.072 2.304,-0.504 2.304,-1.224 0,-1.08 -2.37601,-1.44 -3.96,-2.16 -2.448,-1.08 -3.384,-2.52001 -3.384,-5.184 l 0,-26.28 c 0,-4.104 1.872,-4.176 5.976,-5.328 0.648,-0.216 1.08,-0.576 1.08,-1.224 0,-0.864 -1.44,-1.296 -2.52,-1.296"
         style="fill:none;stroke:#808080;stroke-width:0.62362206;stroke-miterlimit:4;stroke-dasharray:none"
         id="path3023"
         inkscape:connector-curvature="0" />
      <path
         d="m 228.16736,259.2973 0,-18.36 c 0,-1.584 0.576,-1.512 1.368,-0.72 l 22.392,24.84 c 2.73599,3.02399 5.328,4.32 6.12,4.32 0.72,0 1.44,-0.144 1.44,-0.864 0,-1.944 -0.216,-2.52001 -0.216,-5.904 l 0,-28.728 c 0,-4.176 1.872,-4.176 5.976,-5.328 0.648,-0.216 1.08,-0.576 1.08,-1.224 0,-0.864 -1.44,-1.296 -2.52,-1.296 -2.448,0 -3.96001,0.36 -6.48,0.36 -2.592,0 -3.74401,-0.36 -6.552,-0.36 -1.08,0 -2.52,0.432 -2.52,1.296 0,0.648 0.504,1.008 1.152,1.224 4.10399,1.152 5.904,1.152 5.904,5.328 l 0,22.032 c 0,1.44 -1.08,1.08 -2.016,0 l -23.976,-26.928 c -0.72,-0.792 -2.23201,-2.592 -3.816,-2.592 l -7.56,0 c -1.008,0 -1.512,0.216 -1.512,0.792 0,1.296 2.736,1.8 4.32,3.456 l 2.664,2.88 c 0.792,0.936 1.008,3.528 1.008,6.984 l 0,18.792 c 0,2.73599 -0.93601,4.968 -3.384,6.048 -1.584,0.72 -3.96,1.08 -3.96,2.16 0,0.72 1.584,1.152 2.376,1.224 0.504,0 3.24,-0.432 6.624,-0.432 3.45599,0 6.624,0.432 7.128,0.432 0.792,-0.072 2.304,-0.504 2.304,-1.224 0,-1.08 -2.37601,-1.44 -3.96,-2.16 -2.448,-1.08 -3.384,-3.31201 -3.384,-6.048"
         style="fill:none;stroke:#808080;stroke-width:0.62362206;stroke-miterlimit:4;stroke-dasharray:none"
         id="path3025"
         inkscape:connector-curvature="0" />
      <path
         d="m 289.33698,245.9053 c 0,-1.44 2.95201,-4.968 7.272,-4.968 2.088,0 4.248,1.44 4.248,3.528 0,1.008 -0.36,2.232 -1.08,2.232 l -9.504,0 c -0.864,0 -0.936,-0.288 -0.936,-0.792 m 17.784,-0.792 c 0,-3.672 -4.608,-7.488 -9.504,-7.488 -8.78399,0 -15.552,6.76801 -15.552,15.624 0,8.13599 4.46401,15.912 12.456,15.912 7.05599,0 11.232,-3.45601 11.232,-5.544 0,-0.72 -0.36,-1.008 -1.08,-1.008 -0.72,0 -3.888,1.656 -7.488,1.656 -5.68799,0 -9.072,-5.90401 -9.072,-11.376 0,-1.224 0,-1.368 0.288,-2.16 0.216,-0.576 0.36,-0.72 1.368,-0.72 l 15.192,0 c 1.872,0 2.16,-2.95201 2.16,-4.896"
         style="fill:none;stroke:#808080;stroke-width:0.62362206;stroke-miterlimit:4;stroke-dasharray:none"
         id="path3027"
         inkscape:connector-curvature="0" />
    </g>
  </g>
</svg>
